<?xml version="1.0" standalone="no"?>
<!DOCTYPE svg PUBLIC "-//W3C//DTD SVG 20010904//EN"
 "http://www.w3.org/TR/2001/REC-SVG-20010904/DTD/svg10.dtd">
<svg version="1.0" xmlns="http://www.w3.org/2000/svg"
 width="1024.000000pt" height="1024.000000pt" viewBox="0 0 1024.000000 1024.000000"
 preserveAspectRatio="xMidYMid meet">
<metadata>
Created by potrace 1.14, written by Peter Selinger 2001-2017
</metadata>
<g transform="translate(0.000000,1024.000000) scale(0.100000,-0.100000)"
fill="#000000" stroke="none">
<path d="M1445 10233 c-166 -15 -379 -75 -540 -153 -459 -221 -774 -631 -877
-1142 l-23 -113 0 -3705 0 -3705 23 -113 c133 -659 616 -1141 1275 -1274 l112
-23 3705 0 3705 0 113 23 c659 133 1141 615 1274 1274 l23 113 0 3705 0 3705
-23 113 c-89 439 -329 798 -694 1039 -173 114 -355 188 -575 235 l-108 23
-3675 1 c-2021 0 -3693 -1 -3715 -3z m6695 -2388 c122 -15 376 -70 384 -83 2
-6 -102 -417 -163 -638 l-11 -41 -72 19 c-146 37 -338 41 -443 10 -89 -27
-168 -89 -205 -162 -41 -81 -50 -144 -50 -357 l0 -203 385 0 385 0 0 -340 0
-340 -385 0 -385 0 0 -1520 0 -1520 -440 0 -440 0 0 1520 0 1520 -275 0 -275
0 0 340 0 340 274 0 274 0 5 283 c4 237 8 296 25 368 47 198 130 355 255 486
164 171 375 276 637 318 117 18 370 18 520 0z m-3975 -226 c253 -22 475 -79
673 -174 143 -69 245 -139 347 -240 176 -175 287 -401 326 -665 19 -132 7
-384 -24 -501 -93 -353 -353 -610 -734 -725 -81 -25 -93 -31 -93 -51 0 -17 7
-23 33 -27 17 -3 62 -10 100 -16 325 -51 634 -289 791 -607 221 -446 161
-1059 -137 -1407 -233 -270 -520 -422 -952 -503 l-140 -27 -1172 -3 -1173 -4
0 2481 0 2480 1018 0 c624 0 1063 -4 1137 -11z"/>
<path d="M2910 6204 l0 -685 533 3 532 4 96 26 c278 76 461 245 529 490 25 90
27 265 5 353 -56 220 -218 380 -455 448 -141 41 -234 47 -752 47 l-488 0 0
-686z"/>
<path d="M2910 4146 l0 -726 558 0 c325 0 593 4 642 10 373 46 610 219 675
491 21 92 19 256 -5 356 -67 279 -273 475 -590 561 l-95 26 -592 4 -593 3 0
-725z"/>
</g>
</svg>
